<?xml version="1.0" encoding="UTF-8" standalone="no"?>
<svg xmlns="http://www.w3.org/2000/svg" xmlns:xlink="http://www.w3.org/1999/xlink" width="800px" height="600px" viewBox="0 0 800 600">
  <defs>
    <style>
      .box {
        fill: #f0f8ff;
        stroke: #3498db;
        stroke-width: 2px;
      }
      .arrow {
        fill: none;
        stroke: #2c3e50;
        stroke-width: 2px;
        marker-end: url(#arrowhead);
      }
      .text {
        font-family: "PingFang SC", "Microsoft YaHei", "SimHei", "Heiti SC", "STHeiti", Arial, sans-serif;
        font-size: 14px;
        fill: #2c3e50;
      }
      .title {
        font-family: "PingFang SC", "Microsoft YaHei", "SimHei", "Heiti SC", "STHeiti", Arial, sans-serif;
        font-size: 24px;
        font-weight: bold;
        fill: #2c3e50;
      }
      .highlight {
        fill: #ffeaa7;
        stroke: #fdcb6e;
        stroke-width: 2px;
      }
    </style>
    <marker id="arrowhead" markerWidth="10" markerHeight="7" refX="9" refY="3.5" orient="auto">
      <polygon points="0 0, 10 3.5, 0 7" fill="#2c3e50" />
    </marker>
  </defs>
  
  <!-- 标题 -->
  <text x="400" y="40" text-anchor="middle" class="title">Q-Learning 算法流程</text>
  
  <!-- 初始化Q表 -->
  <rect x="300" y="70" width="200" height="60" rx="10" class="box" />
  <text x="400" y="105" text-anchor="middle" class="text">初始化Q表</text>
  
  <!-- 循环开始 -->
  <rect x="300" y="170" width="200" height="60" rx="10" class="box" />
  <text x="400" y="205" text-anchor="middle" class="text">开始新的回合 (Episode)</text>
  
  <!-- 选择动作 -->
  <rect x="300" y="270" width="200" height="60" rx="10" class="box" />
  <text x="400" y="295" text-anchor="middle" class="text">使用ε-greedy策略</text>
  <text x="400" y="315" text-anchor="middle" class="text">选择动作 a</text>
  
  <!-- 执行动作 -->
  <rect x="300" y="370" width="200" height="60" rx="10" class="box" />
  <text x="400" y="395" text-anchor="middle" class="text">执行动作 a, 获得奖励 r</text>
  <text x="400" y="415" text-anchor="middle" class="text">到达新状态 s'</text>
  
  <!-- 更新Q值 - 核心步骤 -->
  <rect x="300" y="470" width="200" height="60" rx="10" class="highlight" />
  <text x="400" y="495" text-anchor="middle" class="text">更新Q值:</text>
  <text x="400" y="515" text-anchor="middle" class="text">Q(s,a) ← Q(s,a) + α[r + γmax(Q(s',a')) - Q(s,a)]</text>
  
  <!-- 判断是否终止 -->
  <path d="M 400 570 L 450 600 L 350 600 Z" class="box" />
  <text x="400" y="590" text-anchor="middle" class="text">s'是终止状态?</text>
  
  <!-- 箭头连接 -->
  <path d="M 400 130 L 400 170" class="arrow" />
  <path d="M 400 230 L 400 270" class="arrow" />
  <path d="M 400 330 L 400 370" class="arrow" />
  <path d="M 400 430 L 400 470" class="arrow" />
  <path d="M 400 530 L 400 570" class="arrow" />
  
  <!-- 循环回路 - 非终止状态 -->
  <path d="M 350 600 L 150 600 L 150 300 L 300 300" class="arrow" />
  <text x="200" y="580" text-anchor="middle" class="text">否 (s ← s')</text>
  
  <!-- 终止当前回合 -->
  <path d="M 450 600 L 650 600 L 650 200 L 500 200" class="arrow" />
  <text x="600" y="580" text-anchor="middle" class="text">是 (结束当前回合)</text>
  
  <!-- 附加解释 -->
  <rect x="550" y="100" width="200" height="80" rx="10" class="box" />
  <text x="650" y="125" text-anchor="middle" class="text">符号说明:</text>
  <text x="650" y="145" text-anchor="middle" class="text">α: 学习率</text>
  <text x="650" y="165" text-anchor="middle" class="text">γ: 折扣因子</text>
  
  <!-- 探索与利用 -->
  <rect x="50" y="100" width="200" height="80" rx="10" class="box" />
  <text x="150" y="125" text-anchor="middle" class="text">ε-greedy 策略:</text>
  <text x="150" y="145" text-anchor="middle" class="text">概率 ε: 随机选择动作(探索)</text>
  <text x="150" y="165" text-anchor="middle" class="text">概率 1-ε: 选择最大Q值动作(利用)</text>
</svg> 